:SAMPLES-PER-SECOND 30
:FULLY-SPECIFIED
:DEGREES
203
root  42.9431 36.7891 2.32254 6.78447 47.0541 5.00401
RightUpLeg  -38.3964 -27.2963 15.3553
RightLeg  22.341 -12.3517 -0.803968
RightFoot  1.81139 2.80816 -23.8631
RightToes  0.00048216 0.542163 -0.142577
Spine  37.1419 -4.47413 9.88818
Spine1  10.0267 -3.94379 5.60446
HEad  -0.778802 -0.310238 -3.7735
LeftShoulder1  10.7562 -19.0214 -41.3759
LeftArm  -10.5188 -32.0568 -23.6993
LeftForeArm  -12.6147 -25.7092 -6.17299
LeftHand  -0.25398 0.0180481 5.50724
RightShoulder  5.20958 11.5024 28.7223
RightArm  -8.10467 22.2345 26.4307
RightForeArm  -51.8671 48.0329 15.0297
RightHand  -0.431085 -2.76075 -18.4517
LeftUpLeg  -23.6508 31.1482 -7.65465
LeftLeg  69.713 1.81624 6.33225
LeftFoot  7.98481 0.352522 -2.21026
LeftToes  1.06244e-005 4.65856e-005 -8.18505e-006
204
root  43.9424 37.0995 2.14618 7.66257 45.167 3.98527
RightUpLeg  -37.589 -24.5491 13.1742
RightLeg  21.1814 -13.6093 0.823068
RightFoot  2.51335 2.94572 -23.7328
RightToes  0.00048216 0.542163 -0.142577
Spine  40.723 -4.58289 10.2725
Spine1  10.2027 -3.6956 5.49974
HEad  -4.19734 -0.200798 -3.53998
LeftShoulder1  10.6924 -20.1793 -38.9092
LeftArm  -13.9183 -39.5356 -22.4015
LeftForeArm  -12.9026 -19.8872 -5.66364
LeftHand  -0.25398 0.0180481 5.50724
RightShoulder  5.15055 11.859 27.4922
RightArm  -9.52832 28.6266 25.9994
RightForeArm  -54.3822 43.3713 13.0051
RightHand  -0.486422 -2.26505 -17.6521
LeftUpLeg  -32.5422 28.4401 -8.22017
LeftLeg  71.8885 1.18595 5.08418
LeftFoot  5.55887 0.00773799 -0.305777
LeftToes  1.06244e-005 4.65856e-005 -8.18505e-006
205
root  44.9548 37.5306 2.00619 9.99278 43.0491 4.73643
RightUpLeg  -37.7774 -23.5342 11.4783
RightLeg  19.7442 -12.2861 1.75174
RightFoot  3.97147 3.03448 -22.0666
RightToes  0.00048216 0.542163 -0.142577
Spine  43.5169 -4.25628 9.63731
Spine1  10.9529 -3.00597 4.55182
HEad  -7.55328 -0.729953 -2.77017
LeftShoulder1  10.7253 -22.301 -35.4061
LeftArm  -21.3875 -46.0421 -20.1238
LeftForeArm  -9.55252 -14.3277 -6.16839
LeftHand  -0.25398 0.0180481 5.50724
RightShoulder  5.11828 11.8817 27.223
RightArm  -11.5867 34.6287 23.9213
RightForeArm  -56.949 38.832 11.3481
RightHand  -0.508258 -1.88676 -16.5224
LeftUpLeg  -39.1566 26.1526 -8.82677
LeftLeg  68.2349 1.41797 4.70472
LeftFoot  1.96647 0.0650419 -0.663902
LeftToes  1.06244e-005 4.65856e-005 -8.18505e-006
206
root  45.967 37.8629 1.86596 12.1309 40.4833 5.62211
RightUpLeg  -38.7322 -23.6675 10.878
RightLeg  19.2366 -9.41171 1.8466
RightFoot  4.86734 2.92992 -20.0975
RightToes  0.00048216 0.542163 -0.142577
Spine  46.7948 -3.75395 8.65932
Spine1  11.0249 -2.22937 3.66371
HEad  -10.3393 -1.17017 -2.3472
LeftShoulder1  10.6328 -24.2856 -32.052
LeftArm  -27.8472 -50.9848 -16.4181
LeftForeArm  -7.93453 -10.2275 -5.88014
LeftHand  -0.25398 0.0180481 5.50724
RightShoulder  4.97018 11.8427 26.3337
RightArm  -13.5969 39.6651 21.7098
RightForeArm  -59.1407 34.5396 9.99984
RightHand  -0.492954 -1.65867 -15.0705
LeftUpLeg  -43.244 24.796 -8.75033
LeftLeg  60.1837 2.5184 5.26508
LeftFoot  0.151713 0.090561 -0.905794
LeftToes  1.06244e-005 4.65856e-005 -8.18505e-006
207
root  47.0302 38.0825 1.70078 13.3988 37.8232 5.6169
RightUpLeg  -40.0178 -24.6937 11.7309
RightLeg  19.0874 -5.44364 1.83014
RightFoot  5.29985 2.89932 -19.363
RightToes  0.00048216 0.542163 -0.142577
Spine  49.7605 -3.83289 7.82013
Spine1  11.8958 -2.04563 2.87892
HEad  -13.2484 -0.591037 -3.01955
LeftShoulder1  10.1876 -24.794 -29.7857
LeftArm  -33.5165 -55.2232 -10.2594
LeftForeArm  -8.83313 -7.49188 -5.32508
LeftHand  -0.25398 0.0180481 5.50724
RightShoulder  4.71716 12.6294 23.0014
RightArm  -15.7152 44.302 21.061
RightForeArm  -60.2061 30.1692 8.75758
RightHand  -0.445456 -1.5526 -13.2264
LeftUpLeg  -45.1102 24.4124 -7.78587
LeftLeg  48.637 4.24147 5.57914
LeftFoot  0.140202 0.117444 -1.16657
LeftToes  1.06244e-005 4.65856e-005 -8.18505e-006
208
root  48.1733 38.1756 1.53213 14.2533 35.1169 4.69734
RightUpLeg  -42.3567 -26.4495 14.4069
RightLeg  19.6816 -0.031265 1.66122
RightFoot  5.61027 2.86674 -18.7865
RightToes  0.00048216 0.542163 -0.142577
Spine  52.563 -4.17007 7.99886
Spine1  12.1901 -1.11137 0.877822
HEad  -15.439 -0.785253 -3.22668
LeftShoulder1  9.82899 -25.7852 -27.2559
LeftArm  -38.7586 -58.0028 -4.59809
LeftForeArm  -9.76512 -5.31748 -4.68424
LeftHand  -0.25398 0.0180481 5.50724
RightShoulder  4.44182 12.9331 20.648
RightArm  -17.8676 47.7413 19.1772
RightForeArm  -60.7792 26.6433 7.86354
RightHand  -0.379265 -1.51693 -11.1285
LeftUpLeg  -45.6541 25.0398 -6.45525
LeftLeg  34.7064 4.40746 3.86763
LeftFoot  0.566469 0.270927 -2.64129
LeftToes  1.06244e-005 4.65856e-005 -8.18505e-006
209
root  49.4299 38.0789 1.38152 15.0924 31.9312 3.30721
RightUpLeg  -45.3351 -26.3801 16.4057
RightLeg  21.983 3.98246 1.45497
RightFoot  5.34626 2.58063 -17.1847
RightToes  0.00048216 0.542163 -0.142577
Spine  54.8744 -4.22763 8.14149
Spine1  12.5485 -0.00821922 -1.00119
HEad  -17.3986 -0.76759 -3.30019
LeftShoulder1  9.37562 -26.4163 -24.9328
LeftArm  -44.2572 -59.9049 1.13035
LeftForeArm  -10.7384 -3.77981 -4.02736
LeftHand  -0.25398 0.0180481 5.50724
RightShoulder  4.05449 13.1426 17.7917
RightArm  -21.2063 50.6922 17.2717
RightForeArm  -60.2195 23.3154 7.39431
RightHand  -0.321595 -1.33709 -9.01156
LeftUpLeg  -44.6333 24.841 -3.55544
LeftLeg  20.8359 2.98906 0.949889
LeftFoot  0.0525759 0.475255 -4.79018
LeftToes  1.06244e-005 4.65856e-005 -8.18505e-006
